<mxfile host="app.diagrams.net" modified="2023-11-30T15:03:30.924Z" agent="Mozilla/5.0 (X11; Linux x86_64) AppleWebKit/537.36 (KHTML, like Gecko) Chrome/118.0.0.0 Safari/537.36" version="22.1.5" etag="woCdy8aYyaQqWhTU3gf2" type="github">
  <diagram name="PÃ¡gina-1" id="2hgW5BIQQCKUlFzMwFcI">
    <mxGraphModel>
      <root>
        <mxCell id="0" />
        <mxCell id="1" parent="0" />
      </root>
    </mxGraphModel>
  </diagram>
</mxfile>
